<?xml version="1.0" standalone="no"?>
<!DOCTYPE svg PUBLIC "-//W3C//DTD SVG 20010904//EN"
 "http://www.w3.org/TR/2001/REC-SVG-20010904/DTD/svg10.dtd">
<svg version="1.0" xmlns="http://www.w3.org/2000/svg"
 width="646.000000pt" height="646.000000pt" viewBox="0 0 646.000000 646.000000"
 preserveAspectRatio="xMidYMid meet">
<metadata>
Created by potrace 1.11, written by Peter Selinger 2001-2013
</metadata>
<g transform="translate(0.000000,646.000000) scale(0.100000,-0.100000)"
fill="#000000" stroke="none">
<path d="M2947 6454 c-1 -1 -49 -4 -107 -8 -58 -3 -116 -8 -130 -11 -14 -2
-45 -6 -70 -9 -39 -4 -132 -22 -219 -40 -105 -23 -207 -66 -250 -107 -65 -61
-62 -128 20 -449 28 -107 52 -202 54 -210 69 -269 180 -649 194 -663 7 -7 110
105 221 243 25 30 47 57 50 60 4 3 19 22 34 42 34 45 37 25 -43 318 -34 124
-63 236 -66 250 -20 114 -20 116 75 126 145 15 694 8 791 -11 13 -3 40 -8 59
-11 126 -22 379 -100 387 -119 3 -8 -7 -35 -21 -60 -24 -39 -238 -322 -255
-335 -4 -3 -40 -48 -81 -100 -41 -52 -77 -97 -80 -100 -3 -3 -44 -52 -90 -110
-46 -58 -87 -107 -90 -110 -3 -3 -70 -86 -150 -185 -80 -99 -152 -189 -162
-200 -13 -16 -85 -105 -141 -175 -377 -470 -590 -720 -604 -707 -2 3 -5 13 -8
24 -2 12 -24 94 -50 184 -25 90 -48 171 -50 179 -1 8 -15 58 -29 110 -15 52
-29 103 -31 113 -5 21 -47 174 -86 312 -15 55 -35 127 -43 160 -8 33 -26 101
-39 150 -14 50 -68 254 -121 455 -53 201 -102 378 -108 393 -16 41 -91 103
-143 117 -93 26 -196 -16 -357 -145 -119 -96 -329 -299 -446 -433 -273 -312
-471 -660 -595 -1047 -39 -122 -113 -409 -120 -467 -5 -36 -3 -38 32 -47 37
-10 67 -16 136 -26 22 -4 47 -8 55 -10 14 -4 104 -15 162 -20 15 -1 32 3 37 9
5 6 20 67 34 136 66 324 233 699 452 1015 116 167 375 445 415 445 10 0 39
-86 80 -245 18 -66 48 -178 66 -250 19 -71 36 -137 38 -145 6 -23 43 -161 87
-322 22 -81 42 -155 44 -165 2 -10 36 -135 75 -278 39 -143 80 -294 91 -335
11 -41 41 -149 66 -240 25 -91 50 -181 55 -201 18 -67 74 -120 143 -135 44
-10 123 -5 155 9 52 21 92 67 514 591 164 204 368 457 452 561 84 105 188 233
230 285 42 52 86 106 98 120 11 14 102 127 201 250 99 124 182 227 185 230 3
3 77 94 165 204 88 109 213 264 277 344 140 174 153 197 152 277 0 105 -53
167 -199 239 -169 83 -494 188 -685 221 -169 29 -283 43 -415 51 -92 5 -294
11 -298 8z"/>
<path d="M5245 5617 c-12 -12 -56 -67 -100 -122 -43 -55 -82 -102 -85 -105 -3
-3 -16 -20 -29 -38 l-23 -34 33 -35 c19 -19 81 -83 138 -142 127 -131 250
-272 323 -371 46 -63 75 -107 168 -260 104 -171 270 -629 270 -747 0 -40 -2
-41 -133 -7 -56 14 -109 27 -117 29 -22 5 -524 139 -675 181 -71 19 -138 37
-147 39 -10 2 -62 16 -115 30 -54 15 -105 29 -113 30 -8 2 -116 31 -240 64
-492 130 -703 177 -753 167 -60 -12 -135 -91 -156 -164 -12 -40 -1 -81 82
-302 67 -182 612 -1601 762 -1985 13 -33 40 -103 60 -155 64 -164 263 -663
281 -705 10 -22 18 -42 19 -45 4 -12 21 -51 60 -136 51 -111 86 -138 175 -138
83 1 165 47 356 199 480 384 888 994 1026 1535 31 123 31 148 -3 214 -33 65
-69 86 -223 132 -298 89 -915 253 -1013 269 l-42 7 19 -63 c34 -112 144 -381
166 -404 13 -14 59 -35 120 -53 98 -31 275 -81 304 -87 41 -8 176 -49 184 -56
9 -8 -5 -58 -36 -129 -30 -67 -126 -262 -140 -285 -7 -10 -33 -51 -57 -90 -59
-92 -166 -237 -226 -305 -112 -128 -287 -300 -304 -300 -9 0 -41 69 -101 220
-23 58 -46 114 -50 125 -33 74 -361 912 -580 1480 -202 526 -214 559 -215 565
0 3 -9 29 -19 58 -10 29 -16 55 -15 57 4 3 272 -64 469 -118 137 -37 512 -138
530 -143 8 -2 42 -11 75 -20 33 -9 67 -18 75 -20 11 -2 251 -66 410 -109 121
-33 535 -135 565 -139 57 -10 105 11 170 72 l56 54 -5 81 c-12 171 -17 234
-26 287 -5 30 -12 73 -16 95 -19 129 -93 381 -161 554 -74 190 -230 492 -309
598 -13 17 -24 34 -24 37 0 3 -6 14 -14 23 -8 10 -50 65 -92 123 -72 95 -399
437 -468 489 -35 26 -45 26 -71 -2z"/>
<path d="M195 3091 c-58 -18 -97 -50 -125 -105 -24 -46 -19 -271 9 -425 81
-453 241 -848 504 -1240 89 -133 222 -298 308 -382 143 -139 230 -143 378 -16
127 111 742 729 779 785 12 18 13 25 3 31 -12 8 -272 57 -351 66 -65 8 -126
18 -133 22 -4 2 -111 -98 -238 -224 -127 -125 -232 -229 -234 -231 -4 -4 -132
161 -180 233 -121 180 -232 411 -307 640 -39 119 -96 347 -91 362 3 6 12 10
21 9 9 -2 44 -7 77 -10 68 -8 118 -15 155 -22 14 -2 45 -7 70 -10 25 -3 54 -8
65 -10 11 -3 52 -9 92 -15 39 -5 80 -11 90 -13 10 -2 50 -9 88 -15 39 -6 153
-24 255 -40 102 -17 205 -33 230 -36 25 -3 52 -8 60 -10 8 -2 33 -6 55 -10 22
-3 83 -12 135 -21 52 -8 106 -16 120 -19 78 -12 117 -18 131 -20 9 -2 40 -6
70 -10 30 -4 56 -8 59 -10 3 -2 33 -7 65 -10 33 -4 62 -9 65 -10 3 -2 42 -8
86 -14 44 -7 89 -13 100 -15 10 -2 42 -7 69 -10 28 -4 57 -9 65 -11 8 -3 31
-7 50 -9 49 -6 170 -25 203 -31 62 -12 84 -15 120 -21 43 -8 46 -20 15 -60
-58 -75 -127 -146 -778 -801 -580 -583 -694 -703 -726 -765 -41 -79 -3 -189
84 -250 111 -77 520 -227 712 -261 14 -3 59 -12 100 -20 99 -21 140 -26 310
-44 89 -9 406 -9 510 0 289 26 739 126 838 187 21 13 32 28 32 43 0 44 -124
331 -153 355 -8 7 -43 0 -107 -19 -179 -55 -390 -102 -565 -125 -66 -9 -465
-11 -535 -3 -225 25 -345 49 -525 105 -118 36 -118 35 -65 91 25 26 304 308
622 627 317 320 608 615 648 656 224 234 299 315 323 350 45 65 -8 230 -82
259 -22 8 -45 14 -101 26 -3 1 -27 5 -55 10 -27 4 -54 9 -60 11 -16 4 -436 72
-485 79 -25 3 -52 8 -60 10 -8 2 -35 7 -60 10 -25 3 -52 8 -60 10 -8 2 -37 6
-65 10 -27 3 -72 10 -100 15 -27 5 -68 12 -90 15 -22 3 -51 7 -65 10 -14 2
-43 7 -65 10 -22 3 -51 7 -65 10 -14 2 -86 13 -160 25 -74 11 -146 23 -160 25
-14 2 -86 14 -160 25 -159 24 -187 29 -220 35 -14 2 -43 7 -65 10 -22 3 -65
10 -95 15 -30 5 -73 12 -95 15 -23 3 -50 7 -60 9 -11 2 -42 7 -69 10 -27 4
-86 14 -133 22 -46 8 -98 16 -116 18 -18 3 -44 7 -57 10 -14 3 -45 8 -70 11
-25 3 -101 14 -170 26 -69 11 -138 22 -155 24 -16 2 -43 6 -60 9 -16 3 -46 8
-65 11 -19 3 -61 10 -93 16 -71 12 -215 19 -242 10z"/>
</g>
</svg>
